<svg width="166" height="50" viewBox="0 0 166 50" fill="none" xmlns="http://www.w3.org/2000/svg">
<path d="M21.58 14.1052L21.0141 15.0652L18.5706 19.4408L18.5241 19.3941C17.4917 18.7915 16.3179 18.476 15.1237 18.48C14.3213 18.475 13.5247 18.6161 12.7724 18.8963C12.0568 19.1591 11.3931 19.5471 10.8121 20.0422C10.2303 20.543 9.73564 21.1376 9.34839 21.8015C8.9502 22.4654 8.68388 23.2004 8.56413 23.9659V37.1837H2.05103V13.1445H8.56413V16.2689C10.2536 13.9311 12.7259 12.7622 15.9766 12.7622C17.8963 12.7622 19.7496 13.2111 21.5335 14.1052H21.58ZM23.5056 37.1837V13.1445H29.8689V37.1837H23.5056ZM23.5056 3.52594H29.8689V9.15112H23.5056V3.52594ZM44.5293 22.9015C45.5814 23.257 46.5471 23.6185 47.4229 23.9889C48.2994 24.3541 49.063 24.7933 49.7174 25.3089C50.3581 25.8052 50.8816 26.4376 51.2505 27.1608C51.6194 27.8778 51.8038 28.7348 51.8038 29.7296V29.7763C51.8038 32.2156 50.9967 34.1245 49.3824 35.5052C47.7689 36.88 45.5091 37.5652 42.6045 37.5652C40.7888 37.5652 39.0019 37.2533 37.2438 36.6282C35.4751 35.9954 33.8118 35.0978 32.3102 33.9659L32.2638 33.92L32.3102 33.8615L35.5727 28.723L35.6184 28.7689C36.5702 29.7963 37.6532 30.5748 38.8691 31.1074C40.0827 31.6333 41.3768 31.8941 42.7542 31.8941C44.6356 31.8941 45.5784 31.2867 45.5784 30.0652C45.5784 29.4874 45.273 29.0556 44.668 28.7689C43.9676 28.4493 43.2475 28.175 42.5122 27.9474C42.3637 27.8906 42.2089 27.8518 42.0511 27.8319C41.9124 27.8171 41.7634 27.78 41.6011 27.7163C40.635 27.4537 39.6743 27.1719 38.7193 26.8711C37.8007 26.5875 36.9301 26.1659 36.1371 25.6208C35.3754 25.0878 34.7318 24.4023 34.2469 23.6074C33.7541 22.7911 33.5091 21.7378 33.5091 20.4474V20.3548C33.5091 19.2378 33.7164 18.2141 34.1318 17.2882C34.5385 16.3667 35.1402 15.5452 35.8951 14.8808C36.6624 14.203 37.5898 13.6822 38.6736 13.3178C39.7625 12.9474 40.9614 12.7622 42.2702 12.7622C43.8063 12.7622 45.3542 12.9941 46.916 13.4571C48.4647 13.9109 49.9344 14.6017 51.2733 15.5052V15.5978L48.3569 20.9333L48.3104 20.8874C47.5727 20.1467 46.6622 19.5615 45.5784 19.1282C44.481 18.694 43.3111 18.474 42.1315 18.48C41.9073 18.48 41.6505 18.4971 41.3591 18.5259C41.0845 18.5543 40.8183 18.6369 40.5756 18.7689C40.343 18.8958 40.1388 19.0692 39.9758 19.2785C39.8149 19.4867 39.7338 19.7822 39.7338 20.1578C39.7338 20.4533 39.8607 20.7193 40.1145 20.9571C40.3734 21.1971 40.7025 21.42 41.0942 21.6282C41.4926 21.8363 41.939 22.0393 42.4318 22.2296C42.9298 22.4237 43.4227 22.6 43.9074 22.763C43.9996 22.763 44.097 22.78 44.2069 22.8089C44.322 22.8408 44.4282 22.8726 44.5293 22.9015ZM78.5719 13.1445C75.8374 15.8614 73.1093 18.5849 70.3877 21.3148L60.5199 31.2237V37.1845H54.2023V3.52594H60.5199V22.9015L70.6754 13.1445H78.5719ZM67.0788 25.8874C68.5462 27.363 69.7333 28.5496 70.6408 29.4519C71.3881 30.1831 72.1299 30.9202 72.8659 31.663L74.2382 33.0282C74.5746 33.3615 74.9177 33.6971 75.2637 34.0356C75.6156 34.3763 76.0243 34.7852 76.4854 35.2622C76.9524 35.743 77.6039 36.3822 78.4332 37.1837H70.5729L70.5264 37.1371L65.3619 31.9408L67.0788 25.8874Z" fill="#FF0000"/>
<path d="M95.149 12.763C96.8695 12.763 98.4948 13.0919 100.026 13.7459C101.561 14.403 102.896 15.303 104.025 16.4422C105.163 17.5789 106.074 18.9226 106.711 20.4015C107.363 21.9052 107.691 23.5259 107.691 25.2622C107.691 27.0215 107.363 28.6741 106.711 30.2163C106.057 31.7526 105.161 33.0919 104.026 34.2319C102.896 35.3667 101.562 36.2637 100.025 36.917C98.4948 37.5711 96.8695 37.9015 95.1483 37.9015C92.78 37.9015 90.8175 37.2585 89.2586 35.98V35.9333L91.6564 31.5126L91.7021 31.5585C92.5271 31.9378 93.4234 32.1351 94.3308 32.137C95.2376 32.1421 96.1359 31.9612 96.9706 31.6052C97.7849 31.2616 98.5249 30.7622 99.1492 30.1348C99.7724 29.509 100.266 28.7656 100.602 27.9474C100.958 27.0976 101.138 26.1841 101.132 25.2622C101.137 24.3592 100.956 23.4648 100.602 22.6348C100.266 21.8333 99.7719 21.1087 99.1485 20.5052C98.518 19.8917 97.7795 19.4012 96.9706 19.0585C96.1356 18.7036 95.2375 18.5225 94.3308 18.5259C93.3769 18.5259 92.4915 18.7059 91.6792 19.0593C90.8838 19.4016 90.1603 19.8922 89.5471 20.5052C88.9337 21.1146 88.4441 21.8379 88.1054 22.6348C87.7493 23.4643 87.5687 24.359 87.575 25.2622V46.8015H81.1194V13.1444H87.575V16.4081C89.3043 13.9778 91.829 12.763 95.149 12.763ZM135.8 13.1444V37.1837H129.529V25.1578C129.534 24.2658 129.353 23.3825 128.998 22.5652C128.656 21.7706 128.163 21.051 127.546 20.4474C126.925 19.8411 126.193 19.3616 125.39 19.0356C124.579 18.6973 123.709 18.524 122.83 18.5259C121.938 18.5193 121.055 18.701 120.237 19.0593C119.45 19.4062 118.729 19.8874 118.105 20.4815C117.477 21.0751 116.979 21.7926 116.64 22.5889C116.292 23.4204 116.116 24.3143 116.122 25.2163C116.122 26.1126 116.294 26.9607 116.64 27.7622C116.986 28.5573 117.484 29.277 118.104 29.8807C118.722 30.4889 119.444 30.9792 120.236 31.3274C121.035 31.6741 121.9 31.8482 122.83 31.8482C123.813 31.8482 124.658 31.6711 125.367 31.3148H125.413V31.42L127.81 35.6904L127.753 35.737C126.191 36.9578 124.263 37.5652 121.966 37.5652C120.275 37.5652 118.675 37.2444 117.171 36.6052C115.704 35.9872 114.369 35.0911 113.239 33.9659C112.117 32.8293 111.217 31.4903 110.588 30.0193C109.934 28.5148 109.609 26.9148 109.609 25.2163C109.609 23.48 109.933 21.8593 110.588 20.3548C111.216 18.8866 112.116 17.5513 113.239 16.42C114.37 15.2879 115.704 14.3806 117.171 13.7459C118.685 13.0892 120.317 12.7543 121.966 12.7622C123.626 12.7622 125.078 13.0748 126.324 13.7C127.568 14.3244 128.635 15.2274 129.529 16.4081V13.1444H135.8Z" fill="black"/>
<mask id="mask0_1_10" style="mask-type:luminance" maskUnits="userSpaceOnUse" x="138" y="12" width="28" height="36">
<path d="M138.009 12.5926H165.301V47.4074H138.009V12.5926Z" fill="white"/>
</mask>
<g mask="url(#mask0_1_10)">
<path d="M146.574 33.92L138.204 13.1444H145.052V13.1904L151.219 30.6444L146.574 33.92ZM164.915 13.1444L164.868 13.237C164.33 14.7126 163.801 16.1481 163.289 17.5422C162.782 18.94 162.303 20.2481 161.86 21.4659C160.26 25.9511 158.83 29.8052 157.571 33.0289C156.309 36.2459 154.96 38.8644 153.525 40.8874C152.086 42.9704 150.464 44.4755 148.66 45.4015C146.852 46.3326 144.593 46.8015 141.882 46.8015H141.79V40.2622H141.882C142.712 40.2622 143.452 40.2274 144.106 40.1585C144.767 40.0948 145.366 39.9615 145.905 39.7533C146.451 39.5448 146.96 39.2519 147.415 38.8852C147.877 38.5207 148.314 38.0341 148.729 37.4259C149.144 36.8481 149.559 36.1422 149.974 35.3089C150.389 34.4756 150.819 33.4859 151.265 32.3341C151.782 31.0034 152.278 29.6644 152.752 28.3178C153.366 26.5956 153.973 24.8712 154.574 23.1444C155.121 21.6068 155.663 20.0673 156.199 18.5259C156.776 16.8911 157.398 15.1111 158.067 13.1904V13.1444H164.915Z" fill="black"/>
</g>
</svg>
