<svg width="33" height="24" viewBox="0 0 33 24" fill="none" xmlns="http://www.w3.org/2000/svg">
<rect x="0.25" y="0.25" width="32.5" height="23.5" rx="1.75" fill="white"/>
<rect x="0.25" y="0.25" width="32.5" height="23.5" rx="1.75" stroke="#F2F4F7" stroke-width="0.5"/>
<path d="M7.9087 22.3956V21.0057C7.9087 20.4728 7.58448 20.1254 7.02877 20.1254C6.75096 20.1254 6.44996 20.2181 6.24155 20.5192C6.07955 20.2644 5.84805 20.1254 5.50074 20.1254C5.26913 20.1254 5.03773 20.1949 4.85242 20.4497V20.1717H4.36621V22.3956H4.85242V21.1678C4.85242 20.7741 5.06083 20.5887 5.38504 20.5887C5.70904 20.5887 5.87125 20.7972 5.87125 21.1678V22.3956H6.35746V21.1678C6.35746 20.7741 6.58886 20.5887 6.88987 20.5887C7.21408 20.5887 7.37608 20.7972 7.37608 21.1678V22.3956H7.9087ZM15.1092 20.1717H14.322V19.5H13.8358V20.1717H13.3959V20.6118H13.8357V21.6312C13.8357 22.1409 14.0441 22.442 14.5998 22.442C14.8082 22.442 15.0396 22.3725 15.2019 22.2799L15.0629 21.8628C14.9239 21.9555 14.7619 21.9787 14.6461 21.9787C14.4146 21.9787 14.322 21.8397 14.322 21.608V20.6118H15.1092V20.1717ZM19.2304 20.1253C18.9526 20.1253 18.7674 20.2644 18.6516 20.4497V20.1717H18.1654V22.3956H18.6516V21.1447C18.6516 20.7741 18.8136 20.5656 19.1146 20.5656C19.2072 20.5656 19.3231 20.5888 19.4157 20.6119L19.5546 20.1486C19.462 20.1254 19.3231 20.1254 19.2304 20.1254M13.0023 20.3572C12.7707 20.195 12.4466 20.1255 12.0993 20.1255C11.5437 20.1255 11.1733 20.4035 11.1733 20.8436C11.1733 21.2144 11.4511 21.4228 11.9373 21.4923L12.1688 21.5155C12.4235 21.5618 12.5624 21.6313 12.5624 21.7472C12.5624 21.9093 12.3772 22.0251 12.053 22.0251C11.7288 22.0251 11.4742 21.9093 11.3121 21.7935L11.0806 22.1641C11.3353 22.3494 11.6826 22.4421 12.0298 22.4421C12.6781 22.4421 13.0486 22.141 13.0486 21.7239C13.0486 21.3301 12.7476 21.1216 12.2845 21.0522L12.053 21.0289C11.8446 21.0057 11.6826 20.9595 11.6826 20.8205C11.6826 20.6583 11.8446 20.5657 12.0993 20.5657C12.3772 20.5657 12.655 20.6814 12.7939 20.751L13.0023 20.3572ZM25.9217 20.1255C25.6438 20.1255 25.4586 20.2645 25.3428 20.4498V20.1718H24.8566V22.3957H25.3428V21.1448C25.3428 20.7742 25.5049 20.5657 25.8058 20.5657C25.8985 20.5657 26.0143 20.5889 26.1069 20.612L26.2458 20.1487C26.1532 20.1255 26.0143 20.1255 25.9217 20.1255ZM19.7167 21.2838C19.7167 21.9556 20.1797 22.4421 20.8975 22.4421C21.2216 22.4421 21.4531 22.3726 21.6846 22.1873L21.4531 21.7935C21.2679 21.9325 21.0827 22.0019 20.8743 22.0019C20.4807 22.0019 20.2029 21.7239 20.2029 21.2838C20.2029 20.8669 20.4807 20.5888 20.8743 20.5657C21.0827 20.5657 21.2679 20.6351 21.4531 20.7742L21.6846 20.3804C21.4531 20.195 21.2216 20.1255 20.8975 20.1255C20.1797 20.1255 19.7167 20.612 19.7167 21.2838ZM24.2084 21.2838V20.1718H23.7222V20.4498C23.56 20.2414 23.3285 20.1255 23.0275 20.1255C22.4024 20.1255 21.9162 20.612 21.9162 21.2838C21.9162 21.9556 22.4024 22.4421 23.0275 22.4421C23.3516 22.4421 23.5833 22.3263 23.7222 22.1178V22.3957H24.2084V21.2838ZM22.4255 21.2838C22.4255 20.89 22.6802 20.5657 23.0969 20.5657C23.4905 20.5657 23.7685 20.8669 23.7685 21.2838C23.7685 21.6776 23.4905 22.0019 23.0969 22.0019C22.6802 21.9787 22.4255 21.6776 22.4255 21.2838ZM16.6142 20.1255C15.9659 20.1255 15.5028 20.5888 15.5028 21.2838C15.5028 21.9788 15.9658 22.4421 16.6373 22.4421C16.9614 22.4421 17.2856 22.3494 17.5403 22.141L17.3087 21.7935C17.1235 21.9325 16.892 22.0251 16.6605 22.0251C16.3595 22.0251 16.0585 21.8861 15.989 21.4922H17.6329V21.307C17.6561 20.5888 17.2394 20.1255 16.6142 20.1255ZM16.6141 20.5425C16.915 20.5425 17.1235 20.7279 17.1697 21.0754H16.0121C16.0584 20.7742 16.2668 20.5425 16.6141 20.5425ZM28.6768 21.2838V19.2915H28.1905V20.4498C28.0284 20.2414 27.7969 20.1255 27.4959 20.1255C26.8708 20.1255 26.3846 20.612 26.3846 21.2838C26.3846 21.9556 26.8708 22.4421 27.4959 22.4421C27.8201 22.4421 28.0516 22.3263 28.1905 22.1178V22.3957H28.6768V21.2838ZM26.894 21.2838C26.894 20.89 27.1486 20.5657 27.5654 20.5657C27.959 20.5657 28.2368 20.8669 28.2368 21.2838C28.2368 21.6776 27.959 22.0019 27.5654 22.0019C27.1486 21.9787 26.894 21.6776 26.894 21.2838ZM10.6405 21.2838V20.1718H10.1543V20.4498C9.99223 20.2414 9.76073 20.1255 9.45972 20.1255C8.83461 20.1255 8.34839 20.612 8.34839 21.2838C8.34839 21.9556 8.83461 22.4421 9.45972 22.4421C9.78393 22.4421 10.0154 22.3263 10.1543 22.1178V22.3957H10.6405V21.2838ZM8.83461 21.2838C8.83461 20.89 9.08931 20.5657 9.50602 20.5657C9.89963 20.5657 10.1775 20.8669 10.1775 21.2838C10.1775 21.6776 9.89963 22.0019 9.50602 22.0019C9.08931 21.9787 8.83461 21.6776 8.83461 21.2838Z" fill="black"/>
<path d="M12.8398 3.28372H20.133V16.3956H12.8398V3.28372Z" fill="#FF5F00"/>
<path d="M13.3031 9.83974C13.3031 7.1757 14.5534 4.81272 16.475 3.28373C15.0628 2.17179 13.28 1.5 11.3352 1.5C6.72758 1.5 3 5.22966 3 9.83974C3 14.4498 6.72758 18.1795 11.3351 18.1795C13.2799 18.1795 15.0627 17.5077 16.475 16.3956C14.5534 14.8899 13.3031 12.5038 13.3031 9.83974Z" fill="#EB001B"/>
<path d="M29.9731 9.83974C29.9731 14.4497 26.2455 18.1795 21.638 18.1795C19.6931 18.1795 17.9104 17.5077 16.498 16.3956C18.4429 14.8668 19.67 12.5038 19.67 9.83974C19.67 7.1757 18.4197 4.81272 16.498 3.28373C17.9103 2.17179 19.6931 1.5 21.638 1.5C26.2455 1.5 29.9731 5.25288 29.9731 9.83974Z" fill="#F79E1B"/>
</svg>
