<svg width="33" height="24" viewBox="0 0 33 24" fill="none" xmlns="http://www.w3.org/2000/svg">
<g clip-path="url(#clip0_2075_659)">
<path d="M-1.36 0C-2.26557 0 -3 0.684382 -3 1.52866V22.4713C-3 23.3156 -2.2652 24 -1.36 24H36.36C37.2656 24 38 23.3156 38 22.4713V1.52866C38 0.68442 37.2652 0 36.36 0H-1.36ZM21.4873 7.15246C22.4851 7.15246 23.2848 7.35791 23.7948 7.54896L23.4463 9.59236L23.2156 9.48367C22.7406 9.29262 22.1304 9.10876 21.2886 9.1218C20.281 9.1218 19.8152 9.54076 19.8152 9.93275C19.8094 10.3744 20.3595 10.6657 21.2592 11.1019C22.7441 11.7749 23.4304 12.5909 23.4207 13.6636C23.4007 15.6209 21.6444 16.8858 18.9389 16.8858C17.7846 16.8739 16.6725 16.6461 16.0714 16.3829L16.4327 14.2715L16.7646 14.422C17.6099 14.774 18.1572 14.9164 19.1874 14.9164C19.9272 14.9164 20.7212 14.6277 20.7275 13.9956C20.7323 13.5829 20.3956 13.2886 19.3937 12.8264C18.4174 12.3753 17.1231 11.6197 17.1374 10.2647C17.1527 8.43183 18.944 7.15246 21.4873 7.15246ZM0.625917 7.45223H4.78102C5.34055 7.47195 5.79229 7.63987 5.94825 8.20582L6.84385 12.5147C6.84398 12.5151 6.84369 12.5167 6.84385 12.5171L7.1129 13.8081L9.63567 7.45223H12.3648L8.30829 16.7556L5.58179 16.758L3.41138 9.25078C4.70279 9.8885 5.80225 10.6263 6.43898 11.6417C6.27481 11.3204 6.0585 10.9578 5.78171 10.6003C5.45937 10.1841 4.76323 9.64662 4.47225 9.41798C3.45832 8.62127 2.08134 7.97782 0.593896 7.63735L0.625917 7.45223ZM13.45 7.46297H16.1188L14.4493 16.752H11.7805L13.45 7.46297ZM28.5239 7.46297H30.5457L32.6623 16.752H30.2356C30.2356 16.752 29.9949 15.6848 29.9166 15.3595C29.5352 15.3595 26.8676 15.3559 26.5674 15.3559C26.4658 15.6074 26.0165 16.752 26.0165 16.752H23.2708L27.1542 8.23448C27.4292 7.62921 27.8978 7.46297 28.5239 7.46297ZM28.7225 9.96138C28.5912 10.3069 28.3625 10.8649 28.3778 10.8404C28.3778 10.8404 27.5563 12.8826 27.3413 13.4128L29.5002 13.4116C29.2996 12.5259 29.0989 11.6401 28.898 10.7544L28.7225 9.96145V9.96138Z" fill="#0146DB"/>
</g>
<defs>
<clipPath id="clip0_2075_659">
<rect width="33" height="24" rx="2" fill="white"/>
</clipPath>
</defs>
</svg>
