<svg width="20" height="20" viewBox="0 0 20 20" fill="none" xmlns="http://www.w3.org/2000/svg">
<path fill-rule="evenodd" clip-rule="evenodd" d="M11.0392 7.97536C11.7237 7.97536 12.2829 8.53452 12.2829 9.21908V13.0576C12.2829 13.7421 11.7237 14.3012 11.0392 14.3012H5.66538C4.98082 14.3012 4.42166 13.7421 4.42166 13.0576V9.21908C4.42166 8.53452 4.98078 7.97536 5.66538 7.97536H6.04362C6.05305 7.97535 6.06209 7.9716 6.06875 7.96494C6.07542 7.95827 6.07917 7.94923 6.07918 7.9398V7.00324C6.07918 5.75248 7.10154 4.73012 8.3523 4.73012C9.60306 4.73012 10.6254 5.75248 10.6254 7.00324V7.9398C10.6254 7.9594 10.6414 7.97536 10.661 7.97536H11.0392ZM8.61894 10.7228V9.59444C8.61894 9.52372 8.59085 9.45589 8.54083 9.40587C8.49082 9.35586 8.42299 9.32776 8.35226 9.32776C8.28153 9.32776 8.2137 9.35586 8.16369 9.40587C8.11368 9.45589 8.08558 9.52372 8.08558 9.59444V10.7228C8.08566 10.7285 8.08437 10.734 8.08182 10.739C8.07927 10.744 8.07554 10.7484 8.07094 10.7516C8.06644 10.755 8.06118 10.7572 8.05563 10.7581C8.05007 10.759 8.04438 10.7585 8.03906 10.7566L6.96626 10.4081C6.93297 10.3971 6.89785 10.3928 6.86289 10.3954C6.82794 10.3981 6.79385 10.4076 6.76258 10.4234C6.73131 10.4392 6.70347 10.4611 6.68068 10.4877C6.65788 10.5144 6.64056 10.5452 6.62973 10.5786C6.61889 10.6119 6.61475 10.647 6.61753 10.682C6.62032 10.7169 6.62998 10.751 6.64596 10.7822C6.66193 10.8134 6.68392 10.8411 6.71065 10.8638C6.73737 10.8865 6.76832 10.9036 6.8017 10.9143L7.87494 11.263C7.8861 11.2667 7.89414 11.2747 7.89774 11.2858C7.89957 11.2912 7.90006 11.2969 7.89918 11.3024C7.8983 11.308 7.89608 11.3132 7.8927 11.3177L7.22918 12.231C7.18904 12.2882 7.17302 12.359 7.18458 12.4279C7.19613 12.4969 7.23434 12.5585 7.29095 12.5996C7.34757 12.6406 7.41804 12.6577 7.48716 12.6472C7.55629 12.6367 7.61852 12.5995 7.66042 12.5435L8.3235 11.6309C8.33042 11.6214 8.3405 11.6162 8.35226 11.6162C8.36402 11.6162 8.3741 11.6214 8.38102 11.6309L9.04406 12.5435C9.06458 12.5718 9.09048 12.5958 9.12027 12.6141C9.15007 12.6325 9.18317 12.6447 9.21771 12.6502C9.25224 12.6557 9.28752 12.6544 9.32153 12.6463C9.35555 12.6381 9.38763 12.6234 9.41594 12.6029C9.44426 12.5824 9.46826 12.5565 9.48656 12.5267C9.50487 12.4969 9.51713 12.4638 9.52264 12.4292C9.52816 12.3947 9.52681 12.3594 9.51869 12.3254C9.51057 12.2914 9.49582 12.2593 9.4753 12.231L8.81182 11.3177C8.8049 11.3082 8.80314 11.297 8.80678 11.2858C8.81042 11.2747 8.81846 11.2666 8.82962 11.263L9.90286 10.9143C9.9697 10.8923 10.0251 10.8446 10.0569 10.7818C10.0887 10.7191 10.0943 10.6462 10.0726 10.5793C10.0508 10.5124 10.0034 10.4568 9.94078 10.4247C9.87814 10.3926 9.80534 10.3866 9.7383 10.4081L8.66554 10.7566C8.66022 10.7585 8.65453 10.7589 8.64898 10.7581C8.64342 10.7572 8.63817 10.755 8.63366 10.7516C8.62905 10.7484 8.62529 10.7441 8.62272 10.7391C8.62016 10.734 8.61886 10.7285 8.61894 10.7228ZM10.092 7.9398V7.00324C10.092 6.04688 9.30858 5.26348 8.35222 5.26348C7.39586 5.26348 6.61242 6.04692 6.61242 7.00324V7.9398C6.61242 7.9594 6.62838 7.97536 6.64798 7.97536H10.0565C10.0761 7.97536 10.092 7.95936 10.092 7.9398ZM15.5011 5.01204C15.525 7.7842 15.3732 10.4593 14.4703 12.7464C13.7515 14.5675 12.5639 16.1359 10.6253 17.3024C10.6197 17.3056 10.6151 17.3104 10.6121 17.3161C10.609 17.3218 10.6076 17.3282 10.6081 17.3347C10.6083 17.3411 10.6104 17.3474 10.614 17.3527C10.6176 17.3581 10.6226 17.3623 10.6285 17.365C10.874 17.4799 11.4672 17.7447 11.6445 17.7658C11.647 17.7661 11.6493 17.7661 11.6518 17.7659C11.7025 17.7613 11.9108 17.6896 11.9645 17.6684C17.6175 15.4346 18.2936 10.3024 18.2665 4.96928C18.2665 4.96144 18.2639 4.95381 18.2591 4.94761C18.2543 4.94141 18.2475 4.937 18.2399 4.93508C15.5916 4.23808 14.1464 3.76456 11.666 2.23956C11.6604 2.23602 11.6539 2.23414 11.6473 2.23413C11.6407 2.23412 11.6343 2.23599 11.6287 2.23952C11.2828 2.45192 10.9309 2.659 10.5805 2.85404C10.5689 2.86052 10.5621 2.872 10.5622 2.88532C10.5623 2.89864 10.5691 2.91004 10.5809 2.91636C12.1513 3.76684 13.4658 4.26724 15.3021 4.746C15.3605 4.76114 15.4121 4.79573 15.4483 4.84409C15.4845 4.89244 15.5031 4.95168 15.5011 5.01204ZM1.73318 5.23524C1.70582 10.5846 2.3915 15.4383 8.03506 17.6684C8.09054 17.6903 8.3111 17.7661 8.35226 17.7661C8.39342 17.7661 8.61398 17.6903 8.66946 17.6684C14.3131 15.4384 14.9987 10.5845 14.9714 5.23524C14.9714 5.22743 14.9688 5.21983 14.9641 5.21364C14.9593 5.20746 14.9526 5.20304 14.945 5.20108C12.3453 4.50144 10.7818 3.73092 8.37102 2.23988C8.36542 2.23632 8.35892 2.23442 8.35228 2.23442C8.34564 2.23442 8.33914 2.23632 8.33354 2.23988C5.92278 3.73092 4.3593 4.50144 1.75954 5.20108C1.75197 5.20303 1.74526 5.20744 1.74049 5.21363C1.73571 5.21982 1.73314 5.22743 1.73318 5.23524Z" fill="#006AFF"/>
</svg>
