<svg width="20" height="20" viewBox="0 0 20 20" fill="none" xmlns="http://www.w3.org/2000/svg">
<path fill-rule="evenodd" clip-rule="evenodd" d="M11.0392 7.97524C11.7237 7.97524 12.2829 8.5344 12.2829 9.21896V13.0574C12.2829 13.742 11.7237 14.3011 11.0392 14.3011H5.66538C4.98082 14.3011 4.42166 13.742 4.42166 13.0574V9.21896C4.42166 8.5344 4.98078 7.97524 5.66538 7.97524H6.04362C6.05305 7.97523 6.06209 7.97148 6.06875 7.96482C6.07542 7.95815 6.07917 7.94911 6.07918 7.93968V7.00312C6.07918 5.75236 7.10154 4.73 8.3523 4.73C9.60306 4.73 10.6254 5.75236 10.6254 7.00312V7.93968C10.6254 7.95928 10.6414 7.97524 10.661 7.97524H11.0392ZM8.61894 10.7227V9.59432C8.61894 9.52359 8.59085 9.45576 8.54083 9.40575C8.49082 9.35574 8.42299 9.32764 8.35226 9.32764C8.28153 9.32764 8.2137 9.35574 8.16369 9.40575C8.11368 9.45576 8.08558 9.52359 8.08558 9.59432V10.7227C8.08566 10.7283 8.08437 10.7339 8.08182 10.7389C8.07927 10.7439 8.07554 10.7482 8.07094 10.7515C8.06644 10.7549 8.06118 10.7571 8.05563 10.758C8.05007 10.7588 8.04438 10.7583 8.03906 10.7565L6.96626 10.408C6.93297 10.397 6.89785 10.3927 6.86289 10.3953C6.82794 10.3979 6.79385 10.4074 6.76258 10.4233C6.73131 10.4391 6.70347 10.461 6.68068 10.4876C6.65788 10.5142 6.64056 10.5451 6.62973 10.5784C6.61889 10.6118 6.61475 10.6469 6.61753 10.6819C6.62032 10.7168 6.62998 10.7508 6.64596 10.782C6.66193 10.8132 6.68392 10.841 6.71065 10.8637C6.73737 10.8863 6.76832 10.9035 6.8017 10.9142L7.87494 11.2629C7.8861 11.2666 7.89414 11.2746 7.89774 11.2857C7.89957 11.291 7.90006 11.2967 7.89918 11.3023C7.8983 11.3078 7.89608 11.3131 7.8927 11.3176L7.22918 12.2309C7.18904 12.2881 7.17302 12.3589 7.18458 12.4278C7.19613 12.4968 7.23434 12.5584 7.29095 12.5994C7.34757 12.6405 7.41804 12.6576 7.48716 12.6471C7.55629 12.6366 7.61852 12.5994 7.66042 12.5434L8.3235 11.6308C8.33042 11.6212 8.3405 11.6161 8.35226 11.6161C8.36402 11.6161 8.3741 11.6213 8.38102 11.6308L9.04406 12.5434C9.06458 12.5717 9.09048 12.5957 9.12027 12.614C9.15007 12.6323 9.18317 12.6446 9.21771 12.6501C9.25224 12.6556 9.28752 12.6543 9.32153 12.6462C9.35555 12.638 9.38763 12.6233 9.41594 12.6028C9.44426 12.5822 9.46826 12.5563 9.48656 12.5266C9.50487 12.4968 9.51713 12.4636 9.52264 12.4291C9.52816 12.3946 9.52681 12.3593 9.51869 12.3253C9.51057 12.2913 9.49582 12.2592 9.4753 12.2309L8.81182 11.3176C8.8049 11.3081 8.80314 11.2969 8.80678 11.2857C8.81042 11.2746 8.81846 11.2665 8.82962 11.2629L9.90286 10.9142C9.9697 10.8921 10.0251 10.8445 10.0569 10.7817C10.0887 10.7189 10.0943 10.6461 10.0726 10.5792C10.0508 10.5122 10.0034 10.4566 9.94078 10.4246C9.87814 10.3925 9.80534 10.3865 9.7383 10.408L8.66554 10.7565C8.66022 10.7583 8.65453 10.7588 8.64898 10.7579C8.64342 10.7571 8.63817 10.7549 8.63366 10.7515C8.62905 10.7483 8.62529 10.7439 8.62272 10.7389C8.62016 10.7339 8.61886 10.7284 8.61894 10.7227ZM10.092 7.93968V7.00312C10.092 6.04676 9.30858 5.26336 8.35222 5.26336C7.39586 5.26336 6.61242 6.0468 6.61242 7.00312V7.93968C6.61242 7.95928 6.62838 7.97524 6.64798 7.97524H10.0565C10.0761 7.97524 10.092 7.95924 10.092 7.93968ZM15.5011 5.01192C15.525 7.78408 15.3732 10.4592 14.4703 12.7463C13.7515 14.5674 12.5639 16.1358 10.6253 17.3022C10.6197 17.3055 10.6151 17.3102 10.6121 17.316C10.609 17.3217 10.6076 17.3281 10.6081 17.3346C10.6083 17.341 10.6104 17.3473 10.614 17.3526C10.6176 17.358 10.6226 17.3622 10.6285 17.3649C10.874 17.4798 11.4672 17.7446 11.6445 17.7657C11.647 17.766 11.6493 17.766 11.6518 17.7658C11.7025 17.7612 11.9108 17.6895 11.9645 17.6683C17.6175 15.4345 18.2936 10.3022 18.2665 4.96916C18.2665 4.96132 18.2639 4.95369 18.2591 4.94749C18.2543 4.94129 18.2475 4.93688 18.2399 4.93496C15.5916 4.23796 14.1464 3.76444 11.666 2.23944C11.6604 2.2359 11.6539 2.23402 11.6473 2.23401C11.6407 2.234 11.6343 2.23587 11.6287 2.2394C11.2828 2.4518 10.9309 2.65888 10.5805 2.85392C10.5689 2.8604 10.5621 2.87188 10.5622 2.8852C10.5623 2.89852 10.5691 2.90992 10.5809 2.91624C12.1513 3.76672 13.4658 4.26712 15.3021 4.74588C15.3605 4.76102 15.4121 4.79561 15.4483 4.84397C15.4845 4.89232 15.5031 4.95156 15.5011 5.01192ZM1.73318 5.23512C1.70582 10.5844 2.3915 15.4382 8.03506 17.6683C8.09054 17.6902 8.3111 17.766 8.35226 17.766C8.39342 17.766 8.61398 17.6902 8.66946 17.6683C14.3131 15.4383 14.9987 10.5844 14.9714 5.23512C14.9714 5.22731 14.9688 5.21971 14.9641 5.21352C14.9593 5.20734 14.9526 5.20292 14.945 5.20096C12.3453 4.50132 10.7818 3.7308 8.37102 2.23976C8.36542 2.23619 8.35892 2.2343 8.35228 2.2343C8.34564 2.2343 8.33914 2.23619 8.33354 2.23976C5.92278 3.7308 4.3593 4.50132 1.75954 5.20096C1.75197 5.2029 1.74526 5.20732 1.74049 5.21351C1.73571 5.2197 1.73314 5.22731 1.73318 5.23512Z" fill="#090E18"/>
</svg>
