<svg width="40" height="40" viewBox="0 0 40 40" fill="none" xmlns="http://www.w3.org/2000/svg">
<path d="M36.6674 15.4167C36.3372 15.421 36.0217 15.5541 35.7883 15.7876C35.5548 16.0211 35.4217 16.3365 35.4174 16.6667V26.6667L28.4507 18.7C28.0081 18.2288 27.4736 17.8532 26.8802 17.5965C26.2869 17.3398 25.6472 17.2073 25.0007 17.2073C24.3542 17.2073 23.7145 17.3398 23.1212 17.5965C22.5278 17.8532 21.9933 18.2288 21.5507 18.7L16.7674 24.1667L15.2007 22.2667C14.769 21.7488 14.2287 21.3322 13.6181 21.0462C13.0075 20.7603 12.3416 20.6121 11.6674 20.6121C10.9931 20.6121 10.3272 20.7603 9.71659 21.0462C9.10601 21.3322 8.56574 21.7488 8.13403 22.2667L4.58403 26.55V10C4.58842 8.56477 5.16052 7.18958 6.17539 6.1747C7.19026 5.15983 8.56546 4.58774 10.0007 4.58334H23.334C23.6656 4.58334 23.9835 4.45165 24.2179 4.21723C24.4523 3.98281 24.584 3.66486 24.584 3.33334C24.584 3.00182 24.4523 2.68388 24.2179 2.44946C23.9835 2.21504 23.6656 2.08334 23.334 2.08334H10.0007C7.90106 2.08334 5.88743 2.91742 4.40277 4.40208C2.9181 5.88674 2.08403 7.90038 2.08403 10V30C2.07616 30.0272 2.07616 30.0561 2.08403 30.0833C2.10598 32.1685 2.94973 34.1608 4.43202 35.6275C5.91431 37.0942 7.91542 37.9168 10.0007 37.9167H30.0007C32.0774 37.9125 34.0693 37.0926 35.5471 35.6335C37.0248 34.1744 37.8701 32.1931 37.9007 30.1167V16.6667C37.8965 16.3393 37.7657 16.0263 37.5358 15.7933C37.3059 15.5602 36.9946 15.4253 36.6674 15.4167ZM30.0007 35.4167H10.0007C8.63922 35.4123 7.32931 34.8954 6.33173 33.9689C5.33416 33.0424 4.72208 31.7741 4.61736 30.4167L10.0007 23.8667C10.2023 23.642 10.449 23.4624 10.7247 23.3394C11.0004 23.2164 11.2988 23.1528 11.6007 23.1528C11.9026 23.1528 12.201 23.2164 12.4767 23.3394C12.7524 23.4624 12.9991 23.642 13.2007 23.8667L15.7174 26.9C15.8328 27.0404 15.9778 27.1535 16.142 27.2313C16.3062 27.3091 16.4856 27.3496 16.6674 27.35C17.0272 27.3302 17.3664 27.1754 17.6174 26.9167L23.3507 20.35C23.5547 20.1352 23.8002 19.9641 24.0724 19.8472C24.3446 19.7303 24.6378 19.67 24.934 19.67C25.2303 19.67 25.5234 19.7303 25.7956 19.8472C26.0678 19.9641 26.3134 20.1352 26.5174 20.35L35.3007 30.35C35.217 31.7065 34.6248 32.9816 33.6424 33.9208C32.66 34.8599 31.3596 35.3941 30.0007 35.4167Z" fill="#777B84"/>
<path d="M7.08398 11.6667C7.08398 12.5732 7.35279 13.4593 7.85642 14.213C8.36004 14.9668 9.07586 15.5542 9.91335 15.9011C10.7508 16.248 11.6724 16.3388 12.5615 16.1619C13.4506 15.9851 14.2672 15.5486 14.9082 14.9076C15.5492 14.2666 15.9857 13.4499 16.1626 12.5608C16.3394 11.6718 16.2487 10.7502 15.9018 9.91271C15.5549 9.07522 14.9674 8.3594 14.2137 7.85577C13.46 7.35215 12.5738 7.08334 11.6673 7.08334C10.4517 7.08334 9.28595 7.56623 8.42641 8.42577C7.56687 9.28531 7.08398 10.4511 7.08398 11.6667ZM13.7507 11.6667C13.7507 12.0787 13.6285 12.4815 13.3995 12.8241C13.1706 13.1667 12.8453 13.4337 12.4646 13.5914C12.0839 13.7491 11.665 13.7904 11.2609 13.71C10.8568 13.6296 10.4855 13.4312 10.1942 13.1398C9.90282 12.8485 9.7044 12.4772 9.62402 12.0731C9.54363 11.669 9.58489 11.2501 9.74257 10.8694C9.90025 10.4887 10.1673 10.1634 10.5099 9.93445C10.8525 9.70553 11.2553 9.58334 11.6673 9.58334C12.2199 9.58334 12.7498 9.80284 13.1405 10.1935C13.5312 10.5842 13.7507 11.1141 13.7507 11.6667ZM26.6673 9.58334H30.4173V13.3333C30.4173 13.6649 30.549 13.9828 30.7834 14.2172C31.0179 14.4516 31.3358 14.5833 31.6673 14.5833C31.9988 14.5833 32.3168 14.4516 32.5512 14.2172C32.7856 13.9828 32.9173 13.6649 32.9173 13.3333V9.58334H36.6673C36.9988 9.58334 37.3168 9.45165 37.5512 9.21723C37.7856 8.98281 37.9173 8.66486 37.9173 8.33334C37.9173 8.00182 37.7856 7.68388 37.5512 7.44946C37.3168 7.21504 36.9988 7.08334 36.6673 7.08334H32.9173V3.33334C32.9173 3.00182 32.7856 2.68388 32.5512 2.44946C32.3168 2.21504 31.9988 2.08334 31.6673 2.08334C31.3358 2.08334 31.0179 2.21504 30.7834 2.44946C30.549 2.68388 30.4173 3.00182 30.4173 3.33334V7.08334H26.6673C26.3358 7.08334 26.0179 7.21504 25.7834 7.44946C25.549 7.68388 25.4173 8.00182 25.4173 8.33334C25.4173 8.66486 25.549 8.98281 25.7834 9.21723C26.0179 9.45165 26.3358 9.58334 26.6673 9.58334Z" fill="#777B84"/>
</svg>
