<svg width="24" height="24" viewBox="0 0 24 24" fill="none" xmlns="http://www.w3.org/2000/svg">
<path fill-rule="evenodd" clip-rule="evenodd" d="M7.28 16.2992C7.13938 16.4397 6.94875 16.5186 6.75 16.5186C6.55125 16.5186 6.36062 16.4397 6.22 16.2992L2.47 12.5492C2.32955 12.4086 2.25066 12.218 2.25066 12.0192C2.25066 11.8205 2.32955 11.6298 2.47 11.4892L6.22 7.73921C6.28866 7.66553 6.37146 7.60643 6.46346 7.56543C6.55546 7.52444 6.65477 7.5024 6.75548 7.50062C6.85618 7.49885 6.95621 7.51737 7.0496 7.55509C7.14299 7.59281 7.22782 7.64896 7.29904 7.72018C7.37026 7.7914 7.4264 7.87623 7.46412 7.96962C7.50184 8.06301 7.52037 8.16303 7.51859 8.26374C7.51681 8.36444 7.49477 8.46375 7.45378 8.55575C7.41279 8.64775 7.35369 8.73055 7.28 8.79921L4.81 11.2692L21 11.2692C21.1989 11.2692 21.3897 11.3482 21.5303 11.4889C21.671 11.6295 21.75 11.8203 21.75 12.0192C21.75 12.2181 21.671 12.4089 21.5303 12.5495C21.3897 12.6902 21.1989 12.7692 21 12.7692L4.81 12.7692L7.28 15.2392C7.42045 15.3798 7.49934 15.5705 7.49934 15.7692C7.49934 15.968 7.42045 16.1586 7.28 16.2992Z" fill="#252F3F"/>
</svg>
