<svg width="40" height="40" viewBox="0 0 40 40" fill="none" xmlns="http://www.w3.org/2000/svg">
<rect width="40" height="40" rx="8" fill="#F2F2FF"/>
<path d="M11.3655 14.0095C11.1685 14.0099 10.9796 14.0879 10.8396 14.2265C10.6995 14.3651 10.6197 14.5532 10.6172 14.7502V25.2536C10.6172 25.8885 10.7419 26.5273 11.1369 27.0545C11.5337 27.5836 12.2178 27.9106 12.987 27.9106H26.5101C28.0484 27.9106 29.3825 26.7578 29.3825 25.2536V18.5676C29.3825 17.0633 28.0484 15.9106 26.5101 15.9106H13.4896C12.6808 15.9106 12.1158 15.355 12.1158 14.7502C12.1133 14.5529 12.0331 14.3645 11.8927 14.2258C11.7523 14.0872 11.5629 14.0094 11.3655 14.0095ZM20.0018 17.8476C21.0793 17.8476 22.1128 18.2756 22.8747 19.0376C23.6367 19.7996 24.0647 20.833 24.0647 21.9106C24.0647 22.4441 23.9597 22.9725 23.7555 23.4654C23.5513 23.9583 23.252 24.4062 22.8747 24.7835C22.4974 25.1608 22.0495 25.4601 21.5566 25.6643C21.0637 25.8685 20.5353 25.9736 20.0018 25.9736C18.9242 25.9736 17.8907 25.5455 17.1288 24.7835C16.3668 24.0216 15.9388 22.9881 15.9388 21.9106C15.9388 20.833 16.3668 19.7996 17.1288 19.0376C17.8907 18.2756 18.9242 17.8476 20.0018 17.8476Z" fill="#006AFF"/>
<path d="M13.4896 12.0894C11.9533 12.0894 10.6172 13.246 10.6172 14.7502C10.6172 16.2545 11.9533 17.4091 13.4896 17.4091C13.6883 17.4086 13.8786 17.3294 14.0189 17.1887C14.1592 17.0481 14.238 16.8575 14.238 16.6589C14.2375 16.4606 14.1585 16.2705 14.0182 16.1303C13.878 15.9901 13.6879 15.911 13.4896 15.9105C12.6827 15.9105 12.1158 15.355 12.1158 14.7502C12.1158 14.1455 12.6827 13.5918 13.4896 13.5918H24.832C25.3536 13.5918 25.7618 14 25.7618 14.5216V16.6589C25.7618 16.8575 25.8405 17.0481 25.9808 17.1887C26.1211 17.3294 26.3115 17.4086 26.5101 17.4091C26.6086 17.4091 26.7062 17.3897 26.7972 17.352C26.8882 17.3143 26.9709 17.2591 27.0406 17.1894C27.1103 17.1197 27.1655 17.037 27.2032 16.946C27.2409 16.855 27.2603 16.7574 27.2603 16.6589V14.5235C27.2603 13.1893 26.1643 12.0894 24.832 12.0894H13.4896ZM19.5142 24.1499L17.7643 22.3981C17.7005 22.3343 17.6499 22.2586 17.6154 22.1753C17.5809 22.092 17.5631 22.0026 17.5631 21.9124C17.5631 21.8222 17.5809 21.7329 17.6154 21.6496C17.6499 21.5663 17.7005 21.4905 17.7643 21.4268C17.8281 21.363 17.9038 21.3124 17.9871 21.2779C18.0704 21.2434 18.1597 21.2256 18.2499 21.2256C18.3401 21.2256 18.4295 21.2434 18.5128 21.2779C18.5961 21.3124 18.6718 21.363 18.7356 21.4268L19.3101 22.0013V20.1625C19.3101 19.7657 19.6276 19.4728 20.0018 19.4728C20.4024 19.4728 20.6877 19.811 20.6877 20.1644V22.0031L21.2339 21.4551C21.3026 21.3784 21.3876 21.318 21.4826 21.2783C21.5776 21.2386 21.6803 21.2206 21.7832 21.2257C21.8861 21.2308 21.9865 21.2588 22.0772 21.3076C22.1678 21.3564 22.2464 21.4249 22.3073 21.508C22.4641 21.7386 22.5246 22.1128 22.2373 22.3962L20.4629 24.1688C20.3323 24.2876 20.1612 24.3519 19.9848 24.3484C19.8083 24.3449 19.6399 24.2738 19.5142 24.1499Z" fill="#006AFF"/>
</svg>
