<svg width="24" height="24" viewBox="0 0 24 24" fill="none" xmlns="http://www.w3.org/2000/svg">
<path d="M15.5 12C15.5 11.6022 15.658 11.2206 15.9393 10.9393C16.2206 10.658 16.6022 10.5 17 10.5C17.3978 10.5 17.7794 10.658 18.0607 10.9393C18.342 11.2206 18.5 11.6022 18.5 12C18.5 12.3978 18.342 12.7794 18.0607 13.0607C17.7794 13.342 17.3978 13.5 17 13.5C16.6022 13.5 16.2206 13.342 15.9393 13.0607C15.658 12.7794 15.5 12.3978 15.5 12Z" fill="black"/>
<path fill-rule="evenodd" clip-rule="evenodd" d="M20.4411 6.67399C20.1121 5.90146 19.5827 5.2309 18.9075 4.73174C18.2324 4.23258 17.4361 3.92298 16.6011 3.83499L15.9491 3.76699C12.6568 3.42052 9.33621 3.44333 6.04906 3.83499L5.61706 3.88599C4.80551 3.98234 4.04912 4.3461 3.46717 4.9199C2.88523 5.49369 2.51084 6.24488 2.40306 7.05499C1.96526 10.3371 1.96526 13.6629 2.40306 16.945C2.51084 17.7551 2.88523 18.5063 3.46717 19.0801C4.04912 19.6539 4.80551 20.0176 5.61706 20.114L6.04906 20.165C9.33606 20.557 12.6561 20.58 15.9491 20.233L16.6011 20.165C17.4361 20.077 18.2324 19.7674 18.9075 19.2682C19.5827 18.7691 20.1121 18.0985 20.4411 17.326C20.9593 17.1724 21.4213 16.8705 21.7701 16.4576C22.1189 16.0446 22.3393 15.5386 22.4041 15.002C22.6371 13.008 22.6371 10.992 22.4041 8.99799C22.3393 8.46134 22.1189 7.95535 21.7701 7.5424C21.4213 7.12945 20.9593 6.82758 20.4411 6.67399ZM15.7911 5.25799C12.6102 4.9242 9.40202 4.94634 6.22606 5.32399L5.79406 5.37599C5.31334 5.43305 4.86528 5.64848 4.52053 5.98834C4.17579 6.3282 3.95397 6.77313 3.89006 7.25299C3.47093 10.4038 3.47093 13.5962 3.89006 16.747C3.95397 17.2269 4.17579 17.6718 4.52053 18.0116C4.86528 18.3515 5.31334 18.5669 5.79406 18.624L6.22606 18.676C9.40206 19.054 12.6111 19.076 15.7921 18.742L16.4441 18.673C17.2722 18.5867 18.0342 18.181 18.5681 17.542C17.0588 17.6294 15.5448 17.59 14.0421 17.424C13.4209 17.3554 12.8412 17.0788 12.3972 16.6391C11.9531 16.1994 11.6708 15.6224 11.5961 15.002C11.3642 13.0074 11.3642 10.9926 11.5961 8.99799C11.6708 8.37756 11.9531 7.80063 12.3972 7.36093C12.8412 6.92123 13.4209 6.6446 14.0421 6.57599C15.5448 6.41001 17.0588 6.37054 18.5681 6.45799C18.0342 5.81901 17.2722 5.41329 16.4441 5.32699L15.7911 5.25799ZM19.2771 8.01499L19.2791 8.02599L19.2851 8.06599L19.4841 8.03399C19.5867 8.04399 19.6894 8.05499 19.7921 8.06699C20.3791 8.13199 20.8471 8.59699 20.9141 9.17199C21.1341 11.051 21.1341 12.949 20.9141 14.828C20.8786 15.1116 20.7486 15.3749 20.545 15.5754C20.3414 15.7759 20.0761 15.9019 19.7921 15.933C19.6894 15.945 19.5867 15.956 19.4841 15.966L19.2851 15.935L19.2791 15.974L19.2771 15.985C17.5991 16.137 15.8771 16.12 14.2081 15.933C13.924 15.9019 13.6587 15.7759 13.4551 15.5754C13.2515 15.3749 13.1215 15.1116 13.0861 14.828C12.8659 12.9491 12.8659 11.0509 13.0861 9.17199C13.1215 8.88844 13.2515 8.62511 13.4551 8.4246C13.6587 8.22408 13.924 8.09809 14.2081 8.06699C15.8921 7.88061 17.5896 7.86319 19.2771 8.01499Z" fill="black"/>
</svg>
