<svg width="24" height="24" viewBox="0 0 24 24" fill="none" xmlns="http://www.w3.org/2000/svg">
<path fill-rule="evenodd" clip-rule="evenodd" d="M21.75 18.75H16.999C16.2697 18.75 15.5702 18.4602 15.0545 17.9445C14.5387 17.4288 14.249 16.7293 14.249 16V14C14.249 13.2706 14.5387 12.5711 15.0545 12.0554C15.5702 11.5397 16.2697 11.25 16.999 11.25H21.75V9.99996C21.75 9.27096 21.46 8.57096 20.945 8.05496C20.4288 7.53976 19.7293 7.25027 19 7.24996H5C4.271 7.24996 3.571 7.53996 3.055 8.05496C2.5398 8.57118 2.25031 9.27063 2.25 9.99996V20C2.25 20.729 2.54 21.429 3.055 21.945C3.57122 22.4602 4.27067 22.7497 5 22.75H19C19.729 22.75 20.429 22.46 20.945 21.945C21.4602 21.4287 21.7497 20.7293 21.75 20V18.75ZM21.75 12.75V17.25H16.999C16.309 17.25 15.749 16.69 15.749 16V14C15.749 13.31 16.309 12.75 16.999 12.75H21.75ZM17.5 14C17.7652 14 18.0196 14.1053 18.2071 14.2929C18.3946 14.4804 18.5 14.7347 18.5 15C18.5 15.2652 18.3946 15.5195 18.2071 15.7071C18.0196 15.8946 17.7652 16 17.5 16C17.2348 16 16.9804 15.8946 16.7929 15.7071C16.6054 15.5195 16.5 15.2652 16.5 15C16.5 14.7347 16.6054 14.4804 16.7929 14.2929C16.9804 14.1053 17.2348 14 17.5 14ZM16.088 6.24996H19C19.191 6.24996 19.381 6.26496 19.568 6.29296L20.042 5.27496C20.1259 5.09486 20.1349 4.88882 20.067 4.70208C19.9992 4.51534 19.86 4.36317 19.68 4.27896L13.335 1.31996C13.1548 1.23613 12.9486 1.22728 12.7619 1.29534C12.5751 1.36341 12.423 1.50282 12.339 1.68296L11.802 2.83396L15.102 4.37196C15.4493 4.53388 15.7338 4.8053 15.9119 5.14456C16.0901 5.48381 16.1519 5.87216 16.088 6.24996ZM5.675 6.24996H15.054C15.1294 6.07117 15.1325 5.87012 15.0628 5.68906C14.993 5.50799 14.8558 5.361 14.68 5.27896L8.335 2.31996C8.15477 2.23613 7.94863 2.22728 7.76188 2.29534C7.57512 2.36341 7.42302 2.50282 7.339 2.68296L5.675 6.24996Z" fill="#006AFF"/>
</svg>
