<svg width="50" height="50" viewBox="0 0 50 50" fill="none" xmlns="http://www.w3.org/2000/svg">
<rect width="50" height="50" rx="8" fill="#E3E6EA"/>
<g clip-path="url(#clip0_2168_787)">
<path d="M15 33H35V35H15V33ZM17 25H19V32H17V25ZM22 25H24V32H22V25ZM26 25H28V32H26V25ZM31 25H33V32H31V25ZM15 20L25 15L35 20V24H15V20ZM17 21.236V22H33V21.236L25 17.236L17 21.236ZM25 21C24.7348 21 24.4804 20.8946 24.2929 20.7071C24.1054 20.5196 24 20.2652 24 20C24 19.7348 24.1054 19.4804 24.2929 19.2929C24.4804 19.1054 24.7348 19 25 19C25.2652 19 25.5196 19.1054 25.7071 19.2929C25.8946 19.4804 26 19.7348 26 20C26 20.2652 25.8946 20.5196 25.7071 20.7071C25.5196 20.8946 25.2652 21 25 21Z" fill="#1A1D24"/>
</g>
<defs>
<clipPath id="clip0_2168_787">
<rect width="24" height="24" fill="white" transform="translate(13 13)"/>
</clipPath>
</defs>
</svg>
