<svg width="45" height="45" viewBox="0 0 45 45" fill="none" xmlns="http://www.w3.org/2000/svg">
<rect width="45" height="45" rx="8" fill="#006AFF"/>
<path d="M25.5007 13H20.5007C15.787 13 13.4295 13 11.9657 14.465C10.9107 15.5187 10.6157 17.0363 10.5332 19.5625H35.4682C35.3857 17.0363 35.0907 15.5187 34.0357 14.465C32.572 13 30.2145 13 25.5007 13Z" fill="white"/>
<path fill-rule="evenodd" clip-rule="evenodd" d="M25.5 33H20.5C15.7863 33 13.4288 33 11.965 31.535C10.5012 30.07 10.5 27.7137 10.5 23C10.5 22.4483 10.5008 21.9275 10.5025 21.4375H35.4975C35.4992 21.9275 35.5 22.4483 35.5 23C35.5 27.7137 35.5 30.0712 34.035 31.535C32.57 32.9987 30.2137 33 25.5 33ZM28.0562 23.3125C28.5975 23.3125 29.0938 23.3125 29.4963 23.3663C29.9412 23.4263 30.41 23.5662 30.7962 23.9537C31.1825 24.3412 31.3238 24.8088 31.3838 25.2538C31.4375 25.6575 31.4375 26.1537 31.4375 26.6937V26.8063C31.4375 27.3475 31.4375 27.8438 31.3838 28.2463C31.3238 28.6913 31.1838 29.16 30.7962 29.5462C30.4087 29.9325 29.9412 30.0738 29.4963 30.1338C29.0925 30.1875 28.5963 30.1875 28.0562 30.1875H27.9438C27.4025 30.1875 26.9062 30.1875 26.5037 30.1338C26.0588 30.0738 25.59 29.9337 25.2037 29.5462C24.8175 29.1587 24.6763 28.6913 24.6163 28.2463C24.5625 27.8425 24.5625 27.3463 24.5625 26.8063V26.6937C24.5625 26.1525 24.5625 25.6563 24.6163 25.2538C24.6763 24.8088 24.8162 24.34 25.2037 23.9537C25.5912 23.5675 26.0588 23.4263 26.5037 23.3663C26.9075 23.3125 27.4037 23.3125 27.9438 23.3125H28.0562ZM14.5625 24.875C14.5625 24.6264 14.6613 24.3879 14.8371 24.2121C15.0129 24.0363 15.2514 23.9375 15.5 23.9375H18C18.2486 23.9375 18.4871 24.0363 18.6629 24.2121C18.8387 24.3879 18.9375 24.6264 18.9375 24.875C18.9375 25.1236 18.8387 25.3621 18.6629 25.5379C18.4871 25.7137 18.2486 25.8125 18 25.8125H15.5C15.2514 25.8125 15.0129 25.7137 14.8371 25.5379C14.6613 25.3621 14.5625 25.1236 14.5625 24.875ZM14.5625 28.625C14.5625 28.3764 14.6613 28.1379 14.8371 27.9621C15.0129 27.7863 15.2514 27.6875 15.5 27.6875H20.5C20.7486 27.6875 20.9871 27.7863 21.1629 27.9621C21.3387 28.1379 21.4375 28.3764 21.4375 28.625C21.4375 28.8736 21.3387 29.1121 21.1629 29.2879C20.9871 29.4637 20.7486 29.5625 20.5 29.5625H15.5C15.2514 29.5625 15.0129 29.4637 14.8371 29.2879C14.6613 29.1121 14.5625 28.8736 14.5625 28.625Z" fill="white"/>
<path d="M26.5287 25.2787L26.5325 25.2775L26.545 25.2713C26.6124 25.2474 26.6825 25.2318 26.7538 25.225C27.0163 25.19 27.3838 25.1875 28 25.1875C28.6163 25.1875 28.9837 25.19 29.2462 25.225C29.322 25.2328 29.3963 25.2505 29.4675 25.2775L29.4713 25.2787L29.4725 25.2825L29.4788 25.295C29.49 25.3225 29.5087 25.3825 29.525 25.5038C29.56 25.7663 29.5625 26.1338 29.5625 26.75C29.5625 27.3663 29.56 27.7337 29.525 27.9962C29.5172 28.072 29.4995 28.1463 29.4725 28.2175L29.4713 28.2213L29.4675 28.2225L29.455 28.2288C29.3876 28.2526 29.3175 28.2682 29.2462 28.275C28.9837 28.31 28.6163 28.3125 28 28.3125C27.3838 28.3125 27.0163 28.31 26.7538 28.275C26.678 28.2672 26.6037 28.2495 26.5325 28.2225L26.5287 28.2213L26.5275 28.2175L26.5213 28.205C26.4974 28.1376 26.4818 28.0675 26.475 27.9962C26.44 27.7337 26.4375 27.3663 26.4375 26.75C26.4375 26.1338 26.44 25.7663 26.475 25.5038C26.4828 25.428 26.5005 25.3537 26.5275 25.2825L26.5287 25.2787Z" fill="white"/>
</svg>
