<svg width="40" height="40" viewBox="0 0 40 40" fill="none" xmlns="http://www.w3.org/2000/svg">
<rect width="40" height="40" rx="8" fill="#F2F2FF"/>
<path d="M14.3112 30.3088H30.7325C30.9387 30.3088 31.1075 30.1438 31.1075 29.9338C31.1075 29.7275 30.9387 29.5588 30.7325 29.5588H29.9037V18.2975H30.875C31.0212 18.2975 31.1562 18.2113 31.2162 18.08C31.2763 17.945 31.2537 17.7875 31.1562 17.6788L27.9012 13.9475C27.7587 13.7863 27.4775 13.7863 27.335 13.9475L24.08 17.6788C23.9825 17.7875 23.96 17.945 24.02 18.08C24.08 18.2113 24.215 18.2975 24.3612 18.2975H25.3325V29.5588H24.7625V20.5363C24.7625 20.33 24.5938 20.1613 24.3875 20.1613H20.5625C20.3562 20.1613 20.1875 20.33 20.1875 20.5363V29.5588H19.67V23.0413C19.67 22.835 19.5013 22.6663 19.295 22.6663H15.47C15.26 22.6663 15.095 22.835 15.095 23.0413V29.5588H14.6862V25.655C14.6862 25.445 14.5175 25.28 14.3112 25.28H10.4863C10.2763 25.28 10.1113 25.445 10.1113 25.655V29.5588H9.125C8.91875 29.5588 8.75 29.7275 8.75 29.9338C8.75 30.1438 8.91875 30.3088 9.125 30.3088H14.3112ZM14.36 20.9113C17.4537 20.9113 19.97 18.395 19.97 15.3013C19.97 12.2075 17.4537 9.69125 14.36 9.69125C11.2662 9.69125 8.75 12.2075 8.75 15.3013C8.75 18.395 11.2662 20.9113 14.36 20.9113ZM14.6525 15.6763H14.0675C13.6856 15.6763 13.3193 15.5245 13.0493 15.2545C12.7792 14.9844 12.6275 14.6182 12.6275 14.2363C12.6275 13.4675 13.2275 12.8375 13.985 12.7963V12.2C13.985 11.9938 14.1537 11.825 14.36 11.825C14.57 11.825 14.735 11.9938 14.735 12.2V12.7963C15.4925 12.8375 16.0963 13.4675 16.0963 14.2363C16.0963 14.4425 15.9275 14.6113 15.7213 14.6113C15.5113 14.6113 15.3463 14.4425 15.3463 14.2363C15.3463 13.8538 15.035 13.5425 14.6525 13.5425H14.0675C13.6888 13.5425 13.3775 13.8538 13.3775 14.2363C13.3775 14.615 13.6888 14.9263 14.0675 14.9263H14.6525C15.4475 14.9263 16.0963 15.575 16.0963 16.3663C16.0963 17.135 15.4925 17.765 14.735 17.8063V18.4025C14.735 18.6125 14.57 18.7775 14.36 18.7775C14.1537 18.7775 13.985 18.6125 13.985 18.4025V17.8063C13.6176 17.7852 13.2722 17.6242 13.0197 17.3564C12.7672 17.0886 12.6269 16.7343 12.6275 16.3663C12.6275 16.16 12.7962 15.9913 13.0025 15.9913C13.2088 15.9913 13.3775 16.16 13.3775 16.3663C13.3775 16.7488 13.6888 17.06 14.0675 17.06H14.6525C15.035 17.06 15.3463 16.7488 15.3463 16.3663C15.3463 15.9875 15.035 15.6763 14.6525 15.6763Z" fill="#006AFF"/>
</svg>
