<svg width="50" height="50" viewBox="0 0 50 50" fill="none" xmlns="http://www.w3.org/2000/svg">
<rect width="50" height="50" rx="8" fill="#E3E6EA"/>
<path d="M21.9998 20V30M19.9998 20H26.4998C27.8805 20 28.9998 21.1192 28.9998 22.5C28.9998 23.8807 27.8805 25 26.4998 25H21.9998H27.4998C28.8805 25 29.9998 26.1192 29.9998 27.5C29.9998 28.8807 28.8805 30 27.4998 30H19.9998M25 20V18M25 32V30M36 25C36 31.0751 31.0751 36 25 36C18.9249 36 14 31.0751 14 25C14 18.9249 18.9249 14 25 14C31.0751 14 36 18.9249 36 25Z" stroke="black" stroke-width="2" stroke-linecap="round"/>
</svg>
