<svg width="20" height="20" viewBox="0 0 20 20" fill="none" xmlns="http://www.w3.org/2000/svg">
<g clip-path="url(#clip0_539_2626)">
<path d="M14.166 4.99996H18.3327V6.66663H16.666V17.5C16.666 17.721 16.5782 17.9329 16.4219 18.0892C16.2657 18.2455 16.0537 18.3333 15.8327 18.3333H4.16602C3.945 18.3333 3.73304 18.2455 3.57676 18.0892C3.42048 17.9329 3.33268 17.721 3.33268 17.5V6.66663H1.66602V4.99996H5.83268V2.49996C5.83268 2.27895 5.92048 2.06698 6.07676 1.9107C6.23304 1.75442 6.445 1.66663 6.66602 1.66663H13.3327C13.5537 1.66663 13.7657 1.75442 13.9219 1.9107C14.0782 2.06698 14.166 2.27895 14.166 2.49996V4.99996ZM7.49935 9.16663V14.1666H9.16602V9.16663H7.49935ZM10.8327 9.16663V14.1666H12.4993V9.16663H10.8327ZM7.49935 3.33329V4.99996H12.4993V3.33329H7.49935Z" fill="#090E18"/>
</g>
<defs>
<clipPath id="clip0_539_2626">
<rect width="20" height="20" fill="white"/>
</clipPath>
</defs>
</svg>
