<svg width="24" height="24" viewBox="0 0 24 24" fill="none" xmlns="http://www.w3.org/2000/svg">
<path d="M7.50003 4.75001C7.40154 4.75001 7.30401 4.76941 7.21302 4.8071C7.12202 4.84479 7.03934 4.90003 6.9697 4.96968C6.90005 5.03932 6.84481 5.122 6.80712 5.21299C6.76943 5.30399 6.75003 5.40151 6.75003 5.50001C6.75003 5.5985 6.76943 5.69602 6.80712 5.78702C6.84481 5.87801 6.90005 5.96069 6.9697 6.03034C7.03934 6.09998 7.12202 6.15522 7.21302 6.19292C7.30401 6.23061 7.40154 6.25001 7.50003 6.25001C7.69894 6.25001 7.88971 6.17099 8.03036 6.03034C8.17101 5.88968 8.25003 5.69892 8.25003 5.50001C8.25003 5.30109 8.17101 5.11033 8.03036 4.96968C7.88971 4.82902 7.69894 4.75001 7.50003 4.75001ZM5.25003 5.50001C5.25015 5.08754 5.36366 4.68304 5.57813 4.33072C5.79261 3.9784 6.09981 3.69181 6.46615 3.50229C6.8325 3.31276 7.24389 3.22758 7.65538 3.25606C8.06686 3.28453 8.4626 3.42557 8.79934 3.66376C9.13609 3.90195 9.40088 4.22813 9.56477 4.60663C9.72867 4.98514 9.78537 5.40142 9.72867 5.80997C9.67197 6.21852 9.50406 6.60363 9.24328 6.9232C8.98251 7.24278 8.63891 7.48452 8.25003 7.62201V11.528C8.33669 11.464 8.4267 11.4047 8.52003 11.35C9.46903 10.778 10.685 10.611 11.718 10.47L11.897 10.445C13.058 10.283 13.999 10.123 14.674 9.66801C15.179 9.32601 15.611 8.75801 15.722 7.61201C15.2241 7.42869 14.807 7.07532 14.5444 6.6143C14.2818 6.15328 14.1905 5.61428 14.2867 5.0925C14.3829 4.57072 14.6605 4.09974 15.0703 3.76273C15.4801 3.42572 15.9958 3.24438 16.5263 3.25073C17.0569 3.25708 17.5681 3.45071 17.9697 3.79743C18.3713 4.14415 18.6375 4.62164 18.7212 5.14558C18.8049 5.66951 18.7008 6.20617 18.4272 6.66077C18.1536 7.11537 17.7282 7.45866 17.226 7.63001C17.1 9.20701 16.488 10.252 15.514 10.91C14.501 11.595 13.192 11.78 12.104 11.93L12.079 11.934C10.909 12.096 9.97203 12.226 9.29303 12.634C8.97803 12.824 8.73103 13.07 8.55603 13.416C8.37603 13.77 8.25003 14.272 8.25003 15V16.378C8.75072 16.5549 9.17273 16.9032 9.44148 17.3612C9.71023 17.8192 9.8084 18.3575 9.71864 18.8809C9.62888 19.4043 9.35698 19.8791 8.95099 20.2214C8.54499 20.5636 8.03106 20.7514 7.50003 20.7514C6.969 20.7514 6.45506 20.5636 6.04907 20.2214C5.64308 19.8791 5.37117 19.4043 5.28142 18.8809C5.19166 18.3575 5.28983 17.8192 5.55858 17.3612C5.82732 16.9032 6.24934 16.5549 6.75003 16.378V7.62201C6.31124 7.46687 5.93136 7.17949 5.66271 6.79945C5.39407 6.41941 5.24989 5.96541 5.25003 5.50001ZM16.5 4.75001C16.4015 4.75001 16.304 4.76941 16.213 4.8071C16.122 4.84479 16.0393 4.90003 15.9697 4.96968C15.9001 5.03932 15.8448 5.122 15.8071 5.21299C15.7694 5.30399 15.75 5.40151 15.75 5.50001C15.75 5.5985 15.7694 5.69602 15.8071 5.78702C15.8448 5.87801 15.9001 5.96069 15.9697 6.03034C16.0393 6.09998 16.122 6.15522 16.213 6.19292C16.304 6.23061 16.4015 6.25001 16.5 6.25001C16.6989 6.25001 16.8897 6.17099 17.0304 6.03034C17.171 5.88968 17.25 5.69892 17.25 5.50001C17.25 5.30109 17.171 5.11033 17.0304 4.96968C16.8897 4.82902 16.6989 4.75001 16.5 4.75001ZM7.50003 17.75C7.30112 17.75 7.11035 17.829 6.9697 17.9697C6.82905 18.1103 6.75003 18.3011 6.75003 18.5C6.75003 18.6989 6.82905 18.8897 6.9697 19.0303C7.11035 19.171 7.30112 19.25 7.50003 19.25C7.69894 19.25 7.88971 19.171 8.03036 19.0303C8.17101 18.8897 8.25003 18.6989 8.25003 18.5C8.25003 18.3011 8.17101 18.1103 8.03036 17.9697C7.88971 17.829 7.69894 17.75 7.50003 17.75Z" fill="black"/>
</svg>
