<svg width="24" height="24" viewBox="0 0 24 24" fill="none" xmlns="http://www.w3.org/2000/svg">
<path d="M16.83 4.25H7.17C6.635 4.25 6.19 4.25 5.825 4.28C5.445 4.31 5.089 4.378 4.752 4.55C4.23445 4.81367 3.81367 5.23445 3.55 5.752C3.46 5.929 3.424 6.148 3.404 6.278C3.37696 6.47054 3.35695 6.664 3.344 6.858C3.312 7.288 3.291 7.822 3.277 8.368C3.25 9.46 3.25 10.638 3.25 11.198V11.2C3.25 11.3989 3.32902 11.5897 3.46967 11.7303C3.61032 11.871 3.80109 11.95 4 11.95C4.19891 11.95 4.38968 11.871 4.53033 11.7303C4.67098 11.5897 4.75 11.3989 4.75 11.2C4.75 10.92 4.75 10.492 4.753 10H19.25V14.8C19.25 15.372 19.25 15.757 19.225 16.052C19.202 16.34 19.16 16.477 19.114 16.567C18.9941 16.8026 18.8026 16.9941 18.567 17.114C18.477 17.16 18.34 17.202 18.052 17.225C17.757 17.249 17.372 17.25 16.8 17.25H12C11.8011 17.25 11.6103 17.329 11.4697 17.4697C11.329 17.6103 11.25 17.8011 11.25 18C11.25 18.1989 11.329 18.3897 11.4697 18.5303C11.6103 18.671 11.8011 18.75 12 18.75H16.83C17.365 18.75 17.81 18.75 18.175 18.72C18.555 18.69 18.911 18.622 19.248 18.45C19.7654 18.1866 20.1862 17.7662 20.45 17.249C20.622 16.911 20.69 16.555 20.72 16.175C20.75 15.81 20.75 15.365 20.75 14.831V8.17C20.75 7.635 20.75 7.19 20.72 6.825C20.69 6.445 20.622 6.089 20.45 5.752C20.1869 5.23475 19.7668 4.81401 19.25 4.55C18.912 4.378 18.556 4.31 18.176 4.28C17.811 4.25 17.365 4.25 16.83 4.25ZM19.25 8H4.789C4.801 7.616 4.819 7.261 4.839 6.969C4.855 6.77033 4.87133 6.61367 4.888 6.499C4.89667 6.445 4.90267 6.41033 4.906 6.395C5.02688 6.1765 5.21044 5.99922 5.433 5.886C5.523 5.84 5.66 5.798 5.947 5.775C6.243 5.751 6.627 5.75 7.2 5.75H16.8C17.372 5.75 17.757 5.75 18.052 5.775C18.34 5.798 18.477 5.84 18.567 5.886C18.803 6.006 18.994 6.197 19.114 6.433C19.16 6.523 19.202 6.66 19.225 6.947C19.246 7.207 19.249 7.536 19.25 8Z" fill="black"/>
<path d="M9.31399 15.877L8.59399 16.577C9.04599 17.43 8.90399 18.502 8.16499 19.218L7.01699 20.332C6.56857 20.7605 5.97222 20.9996 5.35199 20.9996C4.73176 20.9996 4.1354 20.7605 3.68699 20.332C3.47008 20.1247 3.29744 19.8756 3.17949 19.5998C3.06154 19.3239 3.00073 19.027 3.00073 18.727C3.00073 18.427 3.06154 18.1301 3.17949 17.8542C3.29744 17.5784 3.47008 17.3293 3.68699 17.122L4.40699 16.424C4.18121 15.997 4.10084 15.508 4.17808 15.0313C4.25532 14.5545 4.48595 14.1159 4.83499 13.782L5.98299 12.668C6.4314 12.2395 7.02775 12.0004 7.64799 12.0004C8.26822 12.0004 8.86457 12.2395 9.31299 12.668C9.52989 12.8753 9.70253 13.1244 9.82048 13.4002C9.93843 13.6761 9.99924 13.973 9.99924 14.273C9.99924 14.573 9.93843 14.8699 9.82048 15.1458C9.70253 15.4216 9.52989 15.6707 9.31299 15.878M8.66199 15.268C8.79605 15.1395 8.90273 14.9852 8.9756 14.8143C9.04848 14.6435 9.08605 14.4597 9.08605 14.274C9.08605 14.0883 9.04848 13.9045 8.9756 13.7337C8.90273 13.5628 8.79605 13.4085 8.66199 13.28C8.38917 13.0181 8.02565 12.8719 7.64749 12.8719C7.26932 12.8719 6.90581 13.0181 6.63299 13.28L5.48399 14.394C5.30225 14.5688 5.17187 14.79 5.10699 15.0336C5.04212 15.2773 5.04523 15.534 5.11599 15.776C5.54715 15.4762 6.06412 15.3248 6.58888 15.3447C7.11363 15.3645 7.61769 15.5545 8.02499 15.886L8.66199 15.268ZM7.37399 16.5C7.12099 16.3129 6.81464 16.212 6.49999 16.212C6.18533 16.212 5.87898 16.3129 5.62599 16.5C5.87898 16.6871 6.18533 16.788 6.49999 16.788C6.81464 16.788 7.12099 16.6871 7.37399 16.5ZM4.33699 17.733C4.20292 17.8615 4.09625 18.0158 4.02337 18.1867C3.95049 18.3575 3.91293 18.5413 3.91293 18.727C3.91293 18.9127 3.95049 19.0965 4.02337 19.2673C4.09625 19.4382 4.20292 19.5925 4.33699 19.721C4.60981 19.9829 4.97332 20.1291 5.35149 20.1291C5.72965 20.1291 6.09317 19.9829 6.36599 19.721L7.51499 18.607C7.89999 18.234 8.02299 17.701 7.88299 17.225C7.45182 17.5248 6.93485 17.6762 6.4101 17.6563C5.88534 17.6365 5.38128 17.4465 4.97399 17.115L4.33699 17.733ZM14 13C13.7348 13 13.4804 13.1054 13.2929 13.2929C13.1053 13.4804 13 13.7348 13 14C13 14.2652 13.1053 14.5196 13.2929 14.7071C13.4804 14.8946 13.7348 15 14 15H17C17.2652 15 17.5196 14.8946 17.7071 14.7071C17.8946 14.5196 18 14.2652 18 14C18 13.7348 17.8946 13.4804 17.7071 13.2929C17.5196 13.1054 17.2652 13 17 13H14Z" fill="black"/>
</svg>
