<svg width="45" height="45" viewBox="0 0 45 45" fill="none" xmlns="http://www.w3.org/2000/svg">
<rect width="45" height="45" rx="8" fill="#006AFF"/>
<g clip-path="url(#clip0_575_2619)">
<path d="M15.483 30.7786C14.2596 29.6769 13.377 28.3561 12.7988 26.9379C11.2649 23.1764 11.9832 18.7027 14.9778 15.6168L17.7411 18.3801C17.8933 18.5323 18.1672 18.4227 18.2037 18.1975L19.7132 8.31888C19.7375 8.15454 19.5976 8.01455 19.4332 8.0389L9.54852 9.54838C9.32331 9.5849 9.21375 9.8588 9.36592 10.011L12.1353 12.7804C7.56427 17.4549 6.78518 24.4667 9.7859 29.9447C10.6867 31.5942 11.9345 33.1037 13.5231 34.3697C16.2256 36.5183 19.5489 37.5469 22.8478 37.48L23.4687 33.4202C20.6262 33.6636 17.7046 32.7872 15.483 30.7786ZM33.8646 33.2193C38.4357 28.5448 39.2148 21.533 36.2141 16.055C35.3132 14.4055 34.0655 12.896 32.4769 11.63C29.7744 9.48143 26.4511 8.45279 23.1522 8.51974L22.5313 12.5795C25.3677 12.3361 28.2954 13.2125 30.517 15.2211C31.7404 16.3228 32.623 17.6436 33.2012 19.0618C34.735 22.8233 34.0168 27.297 31.0222 30.3829L28.2588 27.6196C28.1067 27.4674 27.8328 27.577 27.7963 27.8022L26.2868 37.6808C26.2624 37.8452 26.4024 37.9851 26.5668 37.9608L36.4515 36.4513C36.6767 36.4148 36.7801 36.1409 36.6341 35.9887L33.8646 33.2193Z" fill="white"/>
</g>
<defs>
<clipPath id="clip0_575_2619">
<rect width="30" height="30" fill="white" transform="translate(8 8)"/>
</clipPath>
</defs>
</svg>
