<svg width="40" height="40" viewBox="0 0 40 40" fill="none" xmlns="http://www.w3.org/2000/svg">
<rect width="40" height="40" rx="8" fill="#F2F2FF"/>
<path fill-rule="evenodd" clip-rule="evenodd" d="M29.75 26.75H24.999C24.2697 26.75 23.5702 26.4603 23.0545 25.9445C22.5387 25.4288 22.249 24.7293 22.249 24V22C22.249 21.2706 22.5387 20.5712 23.0545 20.0554C23.5702 19.5397 24.2697 19.25 24.999 19.25H29.75V18C29.75 17.271 29.46 16.571 28.945 16.055C28.4288 15.5398 27.7293 15.2503 27 15.25H13C12.271 15.25 11.571 15.54 11.055 16.055C10.5398 16.5712 10.2503 17.2707 10.25 18V28C10.25 28.729 10.54 29.429 11.055 29.945C11.5712 30.4602 12.2707 30.7497 13 30.75H27C27.729 30.75 28.429 30.46 28.945 29.945C29.4602 29.4288 29.7497 28.7293 29.75 28V26.75ZM29.75 20.75V25.25H24.999C24.309 25.25 23.749 24.69 23.749 24V22C23.749 21.31 24.309 20.75 24.999 20.75H29.75ZM25.5 22C25.7652 22 26.0196 22.1053 26.2071 22.2929C26.3946 22.4804 26.5 22.7348 26.5 23C26.5 23.2652 26.3946 23.5196 26.2071 23.7071C26.0196 23.8946 25.7652 24 25.5 24C25.2348 24 24.9804 23.8946 24.7929 23.7071C24.6054 23.5196 24.5 23.2652 24.5 23C24.5 22.7348 24.6054 22.4804 24.7929 22.2929C24.9804 22.1053 25.2348 22 25.5 22ZM24.088 14.25H27C27.191 14.25 27.381 14.265 27.568 14.293L28.042 13.275C28.1259 13.0949 28.1349 12.8888 28.067 12.7021C27.9992 12.5154 27.86 12.3632 27.68 12.279L21.335 9.31999C21.1548 9.23616 20.9486 9.22731 20.7619 9.29537C20.5751 9.36344 20.423 9.50285 20.339 9.68299L19.802 10.834L23.102 12.372C23.4493 12.5339 23.7338 12.8053 23.9119 13.1446C24.0901 13.4838 24.1519 13.8722 24.088 14.25ZM13.675 14.25H23.054C23.1294 14.0712 23.1325 13.8702 23.0628 13.6891C22.993 13.508 22.8558 13.361 22.68 13.279L16.335 10.32C16.1548 10.2362 15.9486 10.2273 15.7619 10.2954C15.5751 10.3634 15.423 10.5029 15.339 10.683L13.675 14.25Z" fill="#006AFF"/>
</svg>
